<svg xmlns="http://www.w3.org/2000/svg" xmlns:xlink="http://www.w3.org/1999/xlink" version="1.1" x="0px" y="0px" viewBox="0 0 1024 1024" style="enable-background:new 0 0 1024 1024;" xml:space="preserve"><path d="M967,233L507,3.9v29.8l-30-14.9v29.9l-30-14.9v29.8l-30-14.9v29.9l-30-14.9v29.8l-30-14.9v29.8l-30-14.9v29.9l-30-14.9v29.8  l-30-14.9v29.8l-30-14.9v29.9l-30-14.9v29.8l-30-14.9v29.9l-30-14.9v29.8l-30-14.9V228L87,213V243L57,228v563l460,229.1v-29.8  l30,14.9v-29.9l30,14.9v-29.8l30,14.9v-29.9l30,14.9v-29.8l30,14.9v-29.8l30,14.9v-29.9l30,14.9v-29.8l30,14.9v-29.8l30,14.9v-29.9  l30,14.9v-29.8l30,14.9v-29.9l30,14.9v-29.8l30,14.9V796l30,14.9V781l30,14.9V233z M487,35l20,10v18.8l-20-10V35z M927,764.9l-20-10  V262.8L517,68.7V49.9l410,204.2V764.9z M97,259.1l20,10v492.1l390,194.1v18.8L97,769.9V259.1z M127,755V274l20,10v462.2l360,179.3  v18.7L127,755z M507,104.7v18.7l-20-10V94.8L507,104.7z M487,83.6V64.9l20,10v18.7L487,83.6z M867,735l-20-10V292.7L517,128.4v-18.7  L867,284V735z M157,289l20,10v432.4l330,164.3v18.7L157,740V289z M187,725.1V303.9l20,10v402.4l300,149.4v18.7L187,725.1z   M507,164.5v18.7l-20-10v-18.7L507,164.5z M487,143.4v-18.7l20,10v18.7L487,143.4z M807,705.2l-20-10V322.6L517,188.1v-18.7  l290,144.4V705.2z M217,318.8l20,10v372.6l270,134.5v18.7L217,710.1V318.8z M247,695.2V333.8l20,10v342.8L507,806v18.7L247,695.2z   M507,224.2v18.7l-20-10v-18.7L507,224.2z M487,203.1v-18.7l20,10v18.7L487,203.1z M747,675.3l-20-10V352.5L517,247.9v-18.7  l230,114.5V675.3z M277,348.7l20,10v312.8l210,104.6v18.7L277,680.3V348.7z M307,665.3V363.6l20,10v283l180,89.6v18.7L307,665.3z   M507,284v18.7l-20-10V274L507,284z M487,262.8v-18.7l20,10v18.7L487,262.8z M687,645.4l-20-10V382.3l-150-74.7v-18.7l170,84.7  V645.4z M337,378.6l20,10v253.2l150,74.7v18.7l-170-84.7V378.6z M367,635.5v-242l20,10v223.2l120,59.8v18.7L367,635.5z M507,343.7  v18.7l-20-10v-18.7L507,343.7z M487,322.6v-18.7l20,10v18.7L487,322.6z M627,615.6l-20-10V412.2l-90-44.8v-18.7l110,54.8V615.6z   M397,408.4l20,10v193.4l90,44.8v18.7l-110-54.8V408.4z M427,605.6V423.4l20,10v163.5l60,29.9v18.7L427,605.6z M507,403.5v18.7  l-20-10v-18.7L507,403.5z M487,382.4v-18.7l20,10v18.7L487,382.4z M567,585.7l-20-10V442.1l-30-14.9v-18.7l50,24.9V585.7z   M457,438.3l20,10v133.6l30,14.9v18.7l-50-24.9V438.3z M487,575.7V453.2l20,10V567v18.7L487,575.7z M487,442.1v-18.7l20,10V452  L487,442.1z M517,572l20,10v18.7l-20-10V572z M517,560.8V457v-18.7l20,10v122.5L517,560.8z M477,407.2l-20-10v-18.7l20,10V407.2z   M477,418.4v18.7l-20-10v-18.7L477,418.4z M447,422.2l-20-10v-18.7l20,10V422.2z M517,631.7l20,10v18.7l-20-10V631.7z M517,620.5  v-18.7l20,10v18.7L517,620.5z M547,616.8l20,10v18.7l-20-10V616.8z M547,605.6v-18.7l20,10v18.7L547,605.6z M577,601.8l20,10v18.7  l-20-10V601.8z M577,590.7V427.2l-60-29.9v-18.8l80,39.8v182.2L577,590.7z M477,347.5l-20-10v-18.7l20,10V347.5z M477,358.7v18.7  l-20-10v-18.7L477,358.7z M447,362.5l-20-10v-18.7l20,10V362.5z M447,373.6v18.7l-20-10v-18.7L447,373.6z M417,377.4l-20-10v-18.7  l20,10V377.4z M417,388.5v18.7l-20-10v-18.7L417,388.5z M387,392.3l-20-10v-18.7l20,10V392.3z M517,691.4l20,10v18.7l-20-10V691.4z   M517,680.3v-18.7l20,10v18.7L517,680.3z M547,676.5l20,10v18.7l-20-10V676.5z M547,665.3v-18.7l20,10v18.7L547,665.3z M577,661.5  l20,10v18.7l-20-10V661.5z M577,650.4v-18.7l20,10v18.7L577,650.4z M607,646.6l20,10v18.7l-20-10V646.6z M607,635.5v-18.7l20,10  v18.7L607,635.5z M637,631.7l20,10v18.7l-20-10V631.7z M637,620.5V397.3l-120-59.8v-18.7l140,69.7v242L637,620.5z M477,287.7l-20-10  v-18.7l20,10V287.7z M477,298.9v18.7l-20-10v-18.7L477,298.9z M447,302.7l-20-10V274l20,10V302.7z M447,313.9v18.7l-20-10v-18.7  L447,313.9z M417,317.6l-20-10V289l20,10V317.6z M417,328.8v18.7l-20-10v-18.7L417,328.8z M387,332.6l-20-10v-18.7l20,10V332.6z   M387,343.8v18.7l-20-10v-18.7L387,343.8z M357,347.5l-20-10v-18.7l20,10V347.5z M357,358.7v18.7l-20-10v-18.7L357,358.7z   M327,362.4l-20-10v-18.7l20,10V362.4z M517,751.2l20,10v18.7l-20-10V751.2z M517,740v-18.7l20,10V750L517,740z M547,736.3l20,10  v18.7l-20-10V736.3z M547,725.1v-18.7l20,10v18.7L547,725.1z M577,721.3l20,10V750l-20-10V721.3z M577,710.1v-18.7l20,10v18.7  L577,710.1z M607,706.4l20,10V735l-20-10V706.4z M607,695.2v-18.7l20,10v18.7L607,695.2z M637,691.4l20,10v18.7l-20-10V691.4z   M637,680.2v-18.7l20,10v18.7L637,680.2z M667,676.5l20,10v18.7l-20-10V676.5z M667,665.3v-18.7l20,10v18.7L667,665.3z M697,661.6  l20,10v18.7l-20-10V661.6z M697,650.4v-283l-180-89.6v-18.7l200,99.6v301.7L697,650.4z M477,228l-20-10v-18.7l20,10V228z M477,239.2  v18.7l-20-10v-18.7L477,239.2z M447,242.9l-20-10v-18.7l20,10V242.9z M447,254.1v18.7l-20-10v-18.7L447,254.1z M417,257.9l-20-10  v-18.7l20,10V257.9z M417,269v18.7l-20-10v-18.7L417,269z M387,272.8l-20-10v-18.7l20,10V272.8z M387,284v18.7l-20-10V274L387,284z   M357,287.8l-20-10v-18.7l20,10V287.8z M357,298.9v18.7l-20-10V289L357,298.9z M327,302.7l-20-10V274l20,10V302.7z M327,313.9v18.7  l-20-10v-18.7L327,313.9z M297,317.6l-20-10V289l20,10V317.6z M297,328.8v18.7l-20-10v-18.7L297,328.8z M267,332.6l-20-10v-18.7  l20,10V332.6z M517,810.9l20,10v18.7l-20-10V810.9z M517,799.8v-18.7l20,10v18.7L517,799.8z M547,796l20,10v18.7l-20-10V796z   M547,784.8v-18.7l20,10v18.7L547,784.8z M577,781.1l20,10v18.7l-20-10V781.1z M577,769.9v-18.7l20,10v18.7L577,769.9z M607,766.1  l20,10v18.7l-20-10V766.1z M607,755v-18.7l20,10v18.7L607,755z M637,751.2l20,10v18.7l-20-10V751.2z M637,740v-18.7l20,10V750  L637,740z M667,736.2l20,10v18.7l-20-10V736.2z M667,725.1v-18.7l20,10V735L667,725.1z M697,721.3l20,10V750l-20-10V721.3z   M697,710.1v-18.7l20,10v18.7L697,710.1z M727,706.4l20,10V735l-20-10V706.4z M727,695.2v-18.7l20,10v18.7L727,695.2z M757,691.4  l20,10v18.7l-20-10V691.4z M757,680.3V337.5L517,218v-18.7l260,129.5v361.4L757,680.3z M477,168.2l-20-10v-18.7l20,10V168.2z   M477,179.4v18.7l-20-10v-18.7L477,179.4z M447,183.2l-20-10v-18.7l20,10V183.2z M447,194.4v18.7l-20-10v-18.7L447,194.4z   M417,198.1l-20-10v-18.7l20,10V198.1z M417,209.3V228l-20-10v-18.7L417,209.3z M387,213l-20-10v-18.7l20,10V213z M387,224.2v18.7  l-20-10v-18.7L387,224.2z M357,228l-20-10v-18.7l20,10V228z M357,239.2v18.7l-20-10v-18.7L357,239.2z M327,242.9l-20-10v-18.7l20,10  V242.9z M327,254.1v18.7l-20-10v-18.7L327,254.1z M297,257.9l-20-10v-18.7l20,10V257.9z M297,269.1v18.7l-20-10v-18.7L297,269.1z   M267,272.8l-20-10v-18.7l20,10V272.8z M267,284v18.7l-20-10V274L267,284z M237,287.7l-20-10v-18.7l20,10V287.7z M237,298.9v18.7  l-20-10v-18.7L237,298.9z M207,302.7l-20-10V274l20,10V302.7z M517,870.7l20,10v18.7l-20-10V870.7z M517,859.5v-18.7l20,10v18.7  L517,859.5z M547,855.8l20,10v18.7l-20-10V855.8z M547,844.6v-18.7l20,10v18.7L547,844.6z M577,840.8l20,10v18.7l-20-10V840.8z   M577,829.6v-18.7l20,10v18.7L577,829.6z M607,825.9l20,10v18.7l-20-10V825.9z M607,814.7V796l20,10v18.7L607,814.7z M637,811l20,10  v18.7l-20-10V811z M637,799.8v-18.7l20,10v18.7L637,799.8z M667,796l20,10v18.7l-20-10V796z M667,784.8v-18.7l20,10v18.7L667,784.8z   M697,781.1l20,10v18.7l-20-10V781.1z M697,769.9v-18.7l20,10v18.7L697,769.9z M727,766.1l20,10v18.7l-20-10V766.1z M727,754.9  v-18.7l20,10v18.7L727,754.9z M757,751.2l20,10v18.7l-20-10V751.2z M757,740v-18.7l20,10V750L757,740z M787,736.3l20,10v18.7l-20-10  V736.3z M787,725.1v-18.7l20,10v18.7L787,725.1z M817,721.3l20,10V750l-20-10V721.3z M817,710.1V307.7L517,158.3v-18.7l320,159.3  v421.2L817,710.1z M477,108.5l-20-10V79.8l20,10V108.5z M477,119.7v18.7l-20-10v-18.7L477,119.7z M447,123.4l-20-10V94.8l20,10  V123.4z M447,134.6v18.7l-20-10v-18.7L447,134.6z M417,138.3l-20-10v-18.7l20,10V138.3z M417,149.5v18.7l-20-10v-18.7L417,149.5z   M387,153.3l-20-10v-18.8l20,10V153.3z M387,164.5v18.7l-20-10v-18.7L387,164.5z M357,168.2l-20-10v-18.7l20,10V168.2z M357,179.4  v18.7l-20-10v-18.7L357,179.4z M327,183.1l-20-10v-18.7l20,10V183.1z M327,194.3v18.7l-20-10v-18.7L327,194.3z M297,198.1l-20-10  v-18.8l20,10V198.1z M297,209.3V228l-20-10v-18.7L297,209.3z M267,213l-20-10v-18.7l20,10V213z M267,224.2V243l-20-10v-18.7  L267,224.2z M237,228l-20-10v-18.8l20,10V228z M237,239.2v18.7l-20-10v-18.7L237,239.2z M207,242.9l-20-10v-18.7l20,10V242.9z   M207,254.1v18.7l-20-10v-18.7L207,254.1z M177,257.8l-20-10v-18.7l20,10V257.8z M177,269v18.7l-20-10v-18.7L177,269z M147,272.8  l-20-10v-18.8l20,10V272.8z M517,930.5l20,10v18.7l-20-10V930.5z M517,919.3v-18.7l20,10v18.7L517,919.3z M547,915.5l20,10v18.8  l-20-10V915.5z M547,904.3v-18.7l20,10v18.7L547,904.3z M577,900.6l20,10v18.7l-20-10V900.6z M577,889.4v-18.7l20,10v18.7L577,889.4  z M607,885.7l20,10v18.7l-20-10V885.7z M607,874.5v-18.7l20,10v18.7L607,874.5z M637,870.7l20,10v18.8l-20-10V870.7z M637,859.5  v-18.7l20,10v18.7L637,859.5z M667,855.8l20,10v18.7l-20-10V855.8z M667,844.6v-18.7l20,10v18.7L667,844.6z M697,840.9l20,10v18.7  l-20-10V840.9z M697,829.7v-18.7l20,10v18.7L697,829.7z M727,825.9l20,10v18.8l-20-10V825.9z M727,814.7V796l20,10v18.7L727,814.7z   M757,811l20,10v18.7l-20-10V811z M757,799.8V781l20,10v18.7L757,799.8z M787,796l20,10v18.8l-20-10V796z M787,784.8v-18.7l20,10  v18.7L787,784.8z M817,781.1l20,10v18.7l-20-10V781.1z M817,769.9v-18.7l20,10v18.7L817,769.9z M847,766.2l20,10v18.7l-20-10V766.2z   M847,755v-18.7l20,10v18.7L847,755z M877,751.2l20,10v18.8l-20-10V751.2z M877,740V277.8L517,98.5V79.8L897,269v481L877,740z   M457,50l20,10v18.7l-20-10V50z M427,64.9l20,10v18.8l-20-10V64.9z M397,79.9l20,10v18.7l-20-10V79.9z M367,94.8l20,10v18.7l-20-10  V94.8z M337,109.7l20,10v18.8l-20-10V109.7z M307,124.7l20,10v18.7l-20-10V124.7z M277,139.6l20,10v18.7l-20-10V139.6z M247,154.5  l20,10v18.8l-20-10V154.5z M217,169.5l20,10v18.7l-20-10V169.5z M187,184.4l20,10v18.8l-20-10V184.4z M157,199.4l20,10V228l-20-10  V199.4z M127,214.3l20,10v18.7l-20-10V214.3z M97,229.2l20,10v18.8l-20-10V229.2z M507,1003.9L67,784.8V244.2l20,10v522l420,209.2  V1003.9z M537,989l-20-10v-18.8l20,10V989z M567,974l-20-10v-18.7l20,10V974z M597,959.1l-20-10v-18.8l20,10V959.1z M627,944.1  l-20-10v-18.7l20,10V944.1z M657,929.2l-20-10v-18.7l20,10V929.2z M687,914.3l-20-10v-18.8l20,10V914.3z M717,899.3l-20-10v-18.7  l20,10V899.3z M747,884.4l-20-10v-18.7l20,10V884.4z M777,869.5l-20-10v-18.8l20,10V869.5z M807,854.5l-20-10v-18.7l20,10V854.5z   M837,839.6l-20-10v-18.8l20,10V839.6z M867,824.6l-20-10V796l20,10V824.6z M897,809.7l-20-10v-18.7l20,10V809.7z M927,794.8l-20-10  v-18.8l20,10V794.8z M957,779.8l-20-10v-522L517,38.7V20.1l440,219.1V779.8z"></path></svg>